<svg width="30" height="30" viewBox="0 0 30 30" fill="none" xmlns="http://www.w3.org/2000/svg">
<g clip-path="url(#clip0_140_30)">
<path d="M17.5118 25.8665C18.179 26.5381 18.7746 27.1375 19.3693 27.737C19.5687 27.938 19.7692 28.1372 19.9668 28.3402C20.4316 28.8182 20.4683 29.3494 20.0656 29.7449C19.6835 30.1196 19.1378 30.0797 18.6955 29.6321C17.7668 28.694 16.841 27.7521 15.9179 26.8084C15.6149 26.4982 15.3251 26.1757 15.0127 25.84C14.9384 25.9045 14.8744 25.9509 14.8208 26.006C13.6305 27.2324 12.4468 28.4654 11.248 29.6833C10.7041 30.2353 9.88834 30.0323 9.68792 29.3162C9.58348 28.9434 9.72744 28.6475 9.98432 28.3895C10.7399 27.6279 11.4955 26.8662 12.2501 26.1036C12.3056 26.0477 12.3555 25.987 12.4628 25.8665C12.2699 25.8665 12.1475 25.8665 12.0252 25.8665C9.75943 25.8665 7.49365 25.8751 5.22786 25.8637C2.71085 25.8513 0.661481 24.1924 0.109149 21.7254C0.0329329 21.3944 0 21.0472 0 20.7067C0.00752752 15.7831 0.00846846 10.8585 0.0489289 5.93576C0.0602202 4.587 0.703823 3.45449 1.56572 2.4709C2.9809 0.855614 4.7461 0.00481257 6.92156 0.013349C12.5804 0.0332675 18.2392 0.0674134 23.8971 7.00902e-05C26.8723 -0.0350243 29.2275 2.05072 29.8476 4.91992C29.9388 5.34295 29.9802 5.7859 29.9821 6.21936C29.9953 10.9894 29.9981 15.7593 30.0009 20.5293C30.0019 23.1472 28.3477 25.2196 25.8166 25.7537C25.4299 25.8352 25.0252 25.8589 24.6282 25.8608C22.4207 25.8703 20.2142 25.8656 18.0068 25.8656H17.5118V25.8665ZM1.82354 7.48845C1.81696 7.62219 1.80755 7.72652 1.80755 7.82991C1.80755 12.0555 1.80661 16.282 1.80943 20.5075C1.80943 20.7551 1.81319 21.0074 1.86212 21.2483C2.19898 22.9366 3.54076 24.0312 5.27491 24.0312C11.7204 24.034 18.1667 24.0094 24.6122 24.0454C26.6568 24.0568 28.2273 22.4728 28.2047 20.4402C28.1567 16.2507 28.1906 12.0593 28.1906 7.86975V7.4875H1.82354V7.48845ZM9.85917 1.95397C9.83753 1.91508 9.81589 1.87715 9.79425 1.83826C8.84484 1.83826 7.89543 1.85059 6.94602 1.83541C5.22222 1.8079 3.86821 2.55058 2.79177 3.85571C2.36741 4.36979 2.04466 4.94933 1.90446 5.65026C3.31776 5.65026 4.69059 5.65406 6.06342 5.64173C6.16975 5.64078 6.29489 5.54308 6.37958 5.45772C7.22266 4.60028 8.05445 3.7324 8.89753 2.87496C9.20898 2.55817 9.53925 2.26034 9.86106 1.95397H9.85917ZM15.4145 5.65026C16.8457 5.65026 18.1686 5.65406 19.4916 5.64268C19.5988 5.64173 19.7268 5.54972 19.8096 5.46531C20.8832 4.37359 21.9503 3.27618 23.0173 2.17972C23.1038 2.09151 23.1829 1.99571 23.2798 1.88853C23.2139 1.86481 23.1838 1.843 23.1528 1.843C21.7922 1.84015 20.4325 1.83636 19.0719 1.84584C18.9759 1.84584 18.8583 1.92647 18.7868 2.0033C17.8967 2.96033 17.0141 3.92495 16.1287 4.88578C15.916 5.11721 15.6996 5.34485 15.4126 5.65026H15.4145ZM8.75827 5.61232C8.80814 5.62845 8.83919 5.64742 8.87024 5.64742C10.1612 5.64932 11.4522 5.65501 12.7432 5.64268C12.8617 5.64173 13.0038 5.55067 13.0932 5.45962C14.1837 4.35082 15.2668 3.2335 16.3507 2.11806C16.4185 2.04787 16.4777 1.9682 16.5831 1.8411C15.1087 1.8411 13.7039 1.83921 12.2981 1.84584C12.2303 1.84584 12.1494 1.90655 12.0986 1.96251C10.9911 3.169 9.88646 4.37833 8.75827 5.61232ZM28.0984 5.63319C28.1059 4.40299 26.8243 2.54204 25.714 2.18351C25.6218 2.15411 25.4534 2.23568 25.3725 2.31725C24.3732 3.33309 23.3833 4.35936 22.3916 5.38374C22.3248 5.45298 22.2674 5.5317 22.1827 5.63319H28.0984Z" fill="white"/>
<path d="M10.9801 16.1292C10.9801 14.8867 10.9612 13.6432 10.9857 12.4006C11.0055 11.3649 11.8495 10.5976 12.8685 10.6934C13.179 10.7228 13.5187 10.8518 13.7709 11.0386C15.379 12.228 16.9767 13.4326 18.5565 14.659C19.5445 15.4263 19.5473 16.8216 18.5603 17.5975C16.988 18.8352 15.3949 20.0446 13.801 21.2539C13.2289 21.6874 12.5872 21.7642 11.9455 21.4341C11.3066 21.1059 10.9838 20.5454 10.9791 19.8217C10.9697 18.5905 10.9763 17.3594 10.9763 16.1282C10.9772 16.1282 10.9782 16.1282 10.9801 16.1282V16.1292ZM12.782 12.5505V19.7486C14.391 18.5137 15.9341 17.329 17.5055 16.1235C15.9115 14.918 14.359 13.7428 12.782 12.5505Z" fill="white"/>
</g>
<defs>
<clipPath id="clip0_140_30">
<rect width="30" height="30" fill="white"/>
</clipPath>
</defs>
</svg>
