<svg width="27" height="29" viewBox="0 0 27 29" fill="none" xmlns="http://www.w3.org/2000/svg">
<g clip-path="url(#clip0_122_686)">
<path d="M25.1308 0.453187C25.4373 0.588069 25.7723 0.679702 26.0435 0.865165C27.127 1.60775 27.3168 3.0702 26.476 4.11921C25.6696 5.12497 24.8479 6.11826 24.0335 7.11669C23.7212 7.49934 23.3994 7.87467 23.1047 8.26979C23.0101 8.3966 22.9383 8.5762 22.9383 8.73161C22.9295 13.3953 22.9317 18.059 22.9302 22.722C22.9302 23.8165 22.2968 24.6764 21.2852 24.9403C21.0499 25.0018 20.7985 25.0231 20.5544 25.0238C18.6521 25.0304 16.7505 25.0275 14.8482 25.0275C14.7397 25.0275 14.6305 25.0275 14.503 25.0275V26.9027C14.9267 26.9027 15.3526 26.9019 15.7792 26.9027C16.3224 26.9041 16.6794 27.2245 16.6845 27.7127C16.6889 28.2163 16.3312 28.5454 15.7741 28.5454C12.8844 28.5454 9.99465 28.5462 7.10567 28.5454C6.62918 28.5454 6.28685 28.2478 6.24066 27.8051C6.19741 27.3923 6.48111 26.9796 6.89015 26.9203C7.15918 26.8807 7.43775 26.9049 7.71191 26.9034C7.94722 26.9019 8.1818 26.9034 8.43104 26.9034V25.0282C8.32255 25.0282 8.21772 25.0282 8.11289 25.0282C6.16516 25.0282 4.21742 25.0312 2.26969 25.0268C1.12831 25.0238 0.246446 24.2988 0.0316598 23.1956C0.00600274 23.0622 0.00380357 22.9229 0.00380357 22.7865C0.000138277 18.397 0.000138277 14.0082 0.000871335 9.61861C0.000871335 8.3321 0.963377 7.37399 2.25942 7.37326C6.55734 7.37106 10.8553 7.37032 15.1525 7.37765C15.398 7.37765 15.5806 7.30801 15.7675 7.1548C18.2269 5.13743 20.6944 3.12958 23.1523 1.11001C23.5181 0.809453 23.9184 0.597599 24.3619 0.452454C24.6177 0.452454 24.8743 0.452454 25.1301 0.452454L25.1308 0.453187ZM21.2632 10.5261C21.1452 10.664 21.0741 10.7446 21.0052 10.8282C20.4378 11.5216 19.8733 12.2166 19.3045 12.9086C18.8434 13.4694 18.2599 13.8498 17.5576 14.0265C17.2255 14.1101 16.8781 14.135 16.5262 14.1878C16.5262 14.2765 16.5233 14.3754 16.5262 14.4744C16.5761 16.1384 15.5285 17.6126 13.951 17.9755C13.3462 18.1148 12.7018 18.0854 12.0751 18.1199C11.265 18.1639 10.4777 18.257 9.79966 18.776C9.49544 19.0091 9.03655 18.9343 8.77045 18.6616C8.48895 18.3735 8.45523 17.922 8.71254 17.5833C8.9911 17.2168 9.1729 16.8055 9.21541 16.3576C9.28066 15.6685 9.29898 14.9743 9.3283 14.2816C9.39355 12.7304 10.4066 11.4373 11.9116 11.0525C12.3558 10.9388 12.8265 10.9301 13.2267 10.8802C13.3763 10.2725 13.5287 9.65233 13.6827 9.02923C13.6702 9.02923 13.6086 9.02337 13.5471 9.02337C9.81652 9.02337 6.08599 9.02264 2.35545 9.02337C1.84011 9.02337 1.64365 9.22496 1.64365 9.74103C1.64365 13.2245 1.64365 16.708 1.64365 20.1915C1.64365 20.2795 1.65245 20.3674 1.65758 20.4554H21.2625V10.5254L21.2632 10.5261ZM21.2537 22.1414H1.64365C1.64365 22.2382 1.64365 22.3181 1.64365 22.3987C1.64365 22.5454 1.63559 22.692 1.64805 22.8371C1.67444 23.1347 1.85917 23.3224 2.1546 23.3561C2.27189 23.3693 2.39211 23.3664 2.51086 23.3664C8.40905 23.3664 14.3072 23.3613 20.2054 23.373C21.1584 23.3752 21.3556 23.2821 21.253 22.1414H21.2537ZM20.2238 9.15605C20.245 9.13186 20.2817 9.09374 20.3154 9.05343C21.3563 7.77937 22.3973 6.50605 23.4375 5.23126C24.021 4.51653 24.6096 3.80473 25.1844 3.08267C25.4996 2.68681 25.2994 2.13775 24.8222 2.12163C24.6309 2.11503 24.4044 2.24112 24.2446 2.37013C22.5453 3.74242 20.8571 5.1279 19.1659 6.50971C18.8661 6.75529 18.5678 7.00233 18.2995 7.22298C18.9541 7.88053 19.5845 8.51316 20.2245 9.15605H20.2238ZM10.9117 16.5226C11.5905 16.5072 12.2811 16.5035 12.9709 16.4742C14.3058 16.4177 15.1341 15.3233 14.8145 14.0551C14.5836 13.138 13.7406 12.5376 12.74 12.5758C11.8398 12.6102 11.1309 13.2333 11.0253 14.1826C10.9381 14.9663 10.9454 15.7609 10.9124 16.5233L10.9117 16.5226ZM19.111 10.5459C18.3574 9.79161 17.6434 9.07762 16.9125 8.34676C16.4485 8.73088 15.9346 9.11427 15.4699 9.55044C14.7955 10.1838 14.7977 11.268 15.4354 11.9468C16.0695 12.622 17.1735 12.696 17.8266 12.048C18.3039 11.5751 18.7056 11.0261 19.111 10.5459ZM10.1024 26.8799H12.8206V25.0466H10.1024V26.8799Z" fill="white"/>
</g>
<defs>
<clipPath id="clip0_122_686">
<rect width="27" height="28.0937" fill="white" transform="translate(0 0.453125)"/>
</clipPath>
</defs>
</svg>
