<svg width="25" height="25" viewBox="0 0 25 25" fill="none" xmlns="http://www.w3.org/2000/svg">
<g clip-path="url(#clip0_122_923)">
<path d="M24.4627 25H0.544514C0.141509 24.8181 0.00130516 24.5097 0.00195727 24.067C0.0110868 16.3472 0.0123911 8.62672 9.33467e-07 0.906875C-0.000651178 0.335108 0.340403 -0.000651011 0.906436 9.47706e-07C8.62678 0.0123882 16.3465 0.0110842 24.0668 0.00195682C24.5096 0.00195682 24.8181 0.140824 24.9993 0.544386V24.4628C24.8872 24.7086 24.7105 24.8898 24.4627 25ZM23.5191 14.7499V7.39647H1.48355V14.7506C2.03133 14.7506 2.56606 14.744 3.10079 14.7545C3.26969 14.7577 3.38576 14.7036 3.5038 14.585C5.3121 12.7693 7.12497 10.9581 8.93719 9.14698C9.35454 8.73038 9.74124 8.73038 10.1619 9.14893C10.6522 9.6366 11.1407 10.1262 11.6285 10.6158C11.9141 10.9027 12.1977 11.1915 12.4918 11.4888C12.5766 11.408 12.6418 11.3486 12.7038 11.2867C13.4172 10.5735 14.1286 9.85827 14.846 9.14959C14.9477 9.04918 15.0703 8.954 15.2007 8.90315C15.5418 8.7708 15.8111 8.91749 16.0524 9.15871C17.8626 10.9725 19.6749 12.7843 21.4897 14.5934C21.5588 14.6625 21.6592 14.7421 21.7466 14.744C22.3309 14.7571 22.9165 14.7512 23.5184 14.7512L23.5191 14.7499ZM23.5275 1.48973H1.48355V5.90023H23.5275V1.48973ZM10.3236 16.2233V23.5174H23.5236V16.2233H10.3236ZM1.48812 16.2233V23.5168H8.8309V16.2233H1.48812ZM13.5874 14.7421C12.2323 13.3867 10.874 12.028 9.55865 10.7117C8.22313 12.0469 6.86674 13.4043 5.5286 14.7421H13.5874ZM13.5796 12.5515C13.588 12.5619 13.6057 12.5893 13.6285 12.6121C14.3067 13.2915 14.9823 13.9728 15.6683 14.6443C15.7374 14.7121 15.8678 14.7453 15.9696 14.746C17.0755 14.7532 18.1815 14.7506 19.2882 14.7506H19.4844C18.1241 13.3899 16.771 12.0371 15.427 10.6928C14.8342 11.2893 14.2167 11.9113 13.5796 12.5522V12.5515Z" fill="white"/>
<path d="M15.4251 4.44766C15.013 4.44506 14.6941 4.11451 14.7013 3.69726C14.7085 3.29696 15.0339 2.98271 15.4388 2.98597C15.8516 2.98858 16.1712 3.31977 16.1627 3.73572C16.1548 4.13668 15.8294 4.45027 15.4245 4.44766H15.4251Z" fill="white"/>
<path d="M18.3252 4.44766C17.919 4.43266 17.6105 4.08647 17.6314 3.66857C17.6509 3.27348 17.99 2.97162 18.3976 2.98662C18.7954 3.00096 19.1025 3.33411 19.0921 3.74094C19.0817 4.15037 18.7426 4.46331 18.3252 4.44766Z" fill="white"/>
<path d="M22.0205 3.70509C22.0251 4.12104 21.7029 4.44832 21.2895 4.44767C20.8859 4.44767 20.5637 4.13082 20.5591 3.72856C20.5539 3.31326 20.8761 2.98598 21.2902 2.98598C21.6945 2.98598 22.016 3.30218 22.0205 3.70444V3.70509Z" fill="white"/>
<path d="M16.8961 17.6303C18.3347 17.6303 19.7733 17.6303 21.2118 17.6303C21.7042 17.6303 22.0263 17.9276 22.0204 18.3722C22.0152 18.8044 21.6944 19.0913 21.2125 19.0913C18.3354 19.0913 15.4582 19.0913 12.5811 19.0913C12.0901 19.0913 11.7679 18.7934 11.7725 18.3487C11.7771 17.9184 12.0992 17.6303 12.5798 17.6296C14.0184 17.629 15.4569 17.6296 16.8955 17.6296L16.8961 17.6303Z" fill="white"/>
<path d="M16.869 22.0212C15.4142 22.0212 13.9593 22.0232 12.5045 22.0199C12.1275 22.0192 11.8223 21.7506 11.7754 21.3966C11.7271 21.0296 11.9378 20.6971 12.2958 20.5908C12.3792 20.566 12.4712 20.5608 12.5592 20.5608C15.4527 20.5595 18.3461 20.5589 21.2395 20.5602C21.6979 20.5602 22.0168 20.8575 22.0207 21.2812C22.0246 21.718 21.7051 22.0205 21.2336 22.0212C19.7788 22.0225 18.3239 22.0212 16.869 22.0212Z" fill="white"/>
<path d="M5.1802 17.6303C5.65167 17.6303 6.1225 17.629 6.59397 17.6303C7.07393 17.6322 7.37455 17.9263 7.37586 18.3983C7.37781 19.3488 7.37781 20.2994 7.37586 21.2499C7.37455 21.722 7.07328 22.0192 6.59528 22.0199C5.65298 22.0219 4.71002 22.0219 3.76772 22.0199C3.27929 22.0192 2.98649 21.7213 2.98584 21.2271C2.98454 20.2929 2.98454 19.3586 2.98584 18.4243C2.98649 17.9197 3.27994 17.6316 3.79055 17.6303C4.25355 17.629 4.71655 17.6303 5.1802 17.6303ZM5.90339 19.1096H4.46744V20.5458H5.90339V19.1096Z" fill="white"/>
</g>
<defs>
<clipPath id="clip0_122_923">
<rect width="25" height="25" fill="white"/>
</clipPath>
</defs>
</svg>
