<svg width="19" height="19" viewBox="0 0 19 19" fill="none" xmlns="http://www.w3.org/2000/svg">
<path d="M18.9019 14.0095V4.96398C18.9019 2.22245 16.6878 0 13.9566 0L4.94518 0C2.21398 0 -9.34601e-05 2.22245 -9.34601e-05 4.96398V14.0095C-9.34601e-05 16.751 2.21398 18.9734 4.94518 18.9734H13.9566C16.6878 18.9734 18.9019 16.751 18.9019 14.0095Z" fill="white"/>
<g clip-path="url(#clip0_122_667)">
<path d="M9.59447 4.21306C11.3466 4.21306 11.5552 4.21306 12.2505 4.25478C12.8902 4.28259 13.2379 4.39384 13.4673 4.48423C13.7733 4.60243 13.9958 4.74845 14.2252 4.9779C14.4547 5.20735 14.6007 5.42985 14.7189 5.73579C14.8093 5.96524 14.9136 6.31289 14.9483 6.95257C14.9831 7.64788 14.9901 7.84952 14.9901 9.60865C14.9901 11.3678 14.9901 11.5694 14.9483 12.2647C14.9205 12.9044 14.8093 13.2521 14.7189 13.4815C14.6007 13.7875 14.4547 14.01 14.2252 14.2394C13.9958 14.4689 13.7733 14.6149 13.4673 14.7331C13.2379 14.8235 12.8902 14.9278 12.2505 14.9625C11.5552 14.9973 11.3536 15.0042 9.59447 15.0042C7.83534 15.0042 7.6337 15.0042 6.93839 14.9625C6.29871 14.9347 5.95106 14.8235 5.7216 14.7331C5.41567 14.6149 5.19317 14.4689 4.96372 14.2394C4.73427 14.01 4.58825 13.7875 4.47005 13.4815C4.37966 13.2521 4.27536 12.9044 4.2406 12.2647C4.20583 11.5694 4.19888 11.3678 4.19888 9.60865C4.19888 7.84952 4.19888 7.64788 4.2406 6.95257C4.26841 6.31289 4.37966 5.96524 4.47005 5.73579C4.58825 5.42985 4.73427 5.20735 4.96372 4.9779C5.19317 4.74845 5.41567 4.60243 5.7216 4.48423C5.95106 4.39384 6.29871 4.28954 6.93839 4.25478C7.6337 4.22001 7.83534 4.21306 9.59447 4.21306ZM9.59447 3.03104C7.81448 3.03104 7.58503 3.03799 6.88972 3.07275C6.18746 3.10752 5.71465 3.21877 5.29747 3.37869C4.86638 3.54556 4.49786 3.76806 4.1363 4.13658C3.76779 4.50509 3.54529 4.86665 3.37842 5.29774C3.21849 5.71493 3.10725 6.19469 3.07248 6.89C3.03771 7.59226 3.03076 7.81476 3.03076 9.59475C3.03076 11.3747 3.03771 11.6042 3.07248 12.2995C3.10725 13.0018 3.21849 13.4746 3.37842 13.8918C3.54529 14.3228 3.76779 14.6914 4.1363 15.0529C4.50482 15.4214 4.86638 15.6439 5.29747 15.8108C5.71465 15.9707 6.19441 16.082 6.88972 16.1167C7.59198 16.1515 7.81448 16.1585 9.59447 16.1585C11.3745 16.1585 11.6039 16.1515 12.2992 16.1167C13.0015 16.082 13.4743 15.9707 13.8915 15.8108C14.3226 15.6439 14.6911 15.4214 15.0526 15.0529C15.4212 14.6844 15.6437 14.3228 15.8105 13.8918C15.9704 13.4746 16.0817 12.9948 16.1165 12.2995C16.1512 11.5972 16.1582 11.3747 16.1582 9.59475C16.1582 7.81476 16.1512 7.58531 16.1165 6.89C16.0817 6.18774 15.9704 5.71493 15.8105 5.29774C15.6437 4.86665 15.4212 4.49814 15.0526 4.13658C14.6841 3.76806 14.3226 3.54556 13.8915 3.37869C13.4743 3.21877 12.9945 3.10752 12.2992 3.07275C11.597 3.03799 11.3745 3.03104 9.59447 3.03104Z" fill="black"/>
<path d="M9.59441 6.2225C7.73099 6.2225 6.22217 7.73132 6.22217 9.59475C6.22217 11.4582 7.73099 12.967 9.59441 12.967C11.4578 12.967 12.9667 11.4582 12.9667 9.59475C12.9667 7.73132 11.4578 6.2225 9.59441 6.2225ZM9.59441 11.785C8.38458 11.785 7.40419 10.8046 7.40419 9.59475C7.40419 8.38491 8.38458 7.40453 9.59441 7.40453C10.8042 7.40453 11.7846 8.38491 11.7846 9.59475C11.7846 10.8046 10.8042 11.785 9.59441 11.785Z" fill="black"/>
<path d="M13.106 6.87608C13.5399 6.87608 13.8917 6.52431 13.8917 6.09039C13.8917 5.65646 13.5399 5.30469 13.106 5.30469C12.6721 5.30469 12.3203 5.65646 12.3203 6.09039C12.3203 6.52431 12.6721 6.87608 13.106 6.87608Z" fill="black"/>
</g>
<defs>
<clipPath id="clip0_122_667">
<rect width="13.1344" height="13.1344" fill="white" transform="translate(3.03076 3.03104)"/>
</clipPath>
</defs>
</svg>
