<svg width="19" height="19" viewBox="0 0 19 19" fill="none" xmlns="http://www.w3.org/2000/svg">
<path d="M18.9019 14.0095V4.96398C18.9019 2.22245 16.6878 0 13.9566 0L4.94518 0C2.21398 0 -9.34601e-05 2.22245 -9.34601e-05 4.96398V14.0095C-9.34601e-05 16.751 2.21398 18.9734 4.94518 18.9734H13.9566C16.6878 18.9734 18.9019 16.751 18.9019 14.0095Z" fill="white"/>
<path d="M9.97401 11.1932C9.97401 11.4852 9.91583 11.7383 9.79947 11.9524C9.68311 12.173 9.52797 12.3547 9.32757 12.5039C9.12717 12.6532 8.89445 12.7635 8.62941 12.8414C8.36437 12.9192 8.07994 12.9582 7.78257 12.9582H4.49219V6.1189H8.13812C8.3773 6.1189 8.59063 6.17081 8.77809 6.27463C8.97203 6.37845 9.13364 6.50823 9.26939 6.67694C9.40514 6.83916 9.50857 7.02734 9.57968 7.23498C9.65079 7.44262 9.68958 7.65676 9.68958 7.8644C9.68958 8.19533 9.60554 8.51329 9.43747 8.80529C9.26939 9.09728 9.03021 9.31142 8.70699 9.45417C9.09485 9.57097 9.40514 9.77862 9.6314 10.0771C9.85765 10.3756 9.97401 10.7519 9.97401 11.1997V11.1932ZM5.81093 7.25445V8.98049H7.57571C7.80197 8.98049 7.98944 8.90262 8.14458 8.74689C8.29973 8.59115 8.3773 8.38351 8.3773 8.11098C8.3773 7.83845 8.30619 7.63729 8.16397 7.48805C8.02176 7.33231 7.84075 7.25445 7.63389 7.25445H5.81093ZM8.64234 10.9401C8.64234 10.8168 8.62295 10.7 8.5777 10.5897C8.53891 10.4794 8.48073 10.3821 8.40962 10.2977C8.33851 10.2134 8.25448 10.1485 8.15751 10.1031C8.06054 10.0576 7.95711 10.0317 7.84075 10.0317H5.80446V11.8291H7.76965C7.89247 11.8291 8.00236 11.8096 8.11226 11.7642C8.21569 11.7188 8.30619 11.6539 8.38377 11.576C8.46134 11.4982 8.51952 11.4008 8.56477 11.2905C8.61002 11.1802 8.62941 11.0634 8.62941 10.9466L8.64234 10.9401Z" fill="black"/>
<path d="M12.8452 12.9518C12.4573 12.9518 12.1018 12.8869 11.785 12.7507C11.158 12.4846 10.7184 12.0369 10.4598 11.401C10.337 11.096 10.2788 10.7781 10.2788 10.4406C10.2788 10.1032 10.337 9.76579 10.4533 9.45433C10.7055 8.81193 11.145 8.35771 11.7786 8.08518C12.0953 7.94891 12.4573 7.87753 12.8516 7.87753C13.246 7.87753 13.6015 7.94891 13.9183 8.08518C14.9461 8.53291 15.4309 9.53868 15.3857 10.6223C15.3857 10.6937 15.3728 10.7586 15.3598 10.8105H11.5976C11.6169 11.0052 11.6622 11.1739 11.7398 11.3231C11.8173 11.4724 11.9078 11.6021 12.0307 11.706C12.147 11.8098 12.2828 11.8941 12.4315 11.9461C12.5801 12.0045 12.7353 12.0304 12.8969 12.0304C13.1425 12.0304 13.3817 11.972 13.6015 11.8487C13.8213 11.7254 13.97 11.5697 14.054 11.3685L15.1207 11.667C14.9397 12.0434 14.6552 12.3484 14.2609 12.5884C13.8666 12.8285 13.4011 12.9453 12.8516 12.9453L12.8452 12.9518ZM14.1057 10.0059C14.0734 9.63602 13.9377 9.34402 13.6985 9.12339C13.4593 8.90277 13.1684 8.79246 12.8323 8.79246C12.6642 8.79246 12.509 8.82491 12.3603 8.88331C12.2117 8.94171 12.0888 9.02606 11.9725 9.12988C11.8626 9.23371 11.7721 9.36348 11.701 9.51273C11.6299 9.66197 11.5911 9.82419 11.5782 10.0059H14.1057Z" fill="black"/>
<path d="M11.2026 6.44342H14.4607V7.25453H11.2026V6.44342Z" fill="black"/>
</svg>
