<svg width="19" height="19" viewBox="0 0 19 19" fill="none" xmlns="http://www.w3.org/2000/svg">
<path d="M19 14.0291V4.97093C19 2.22556 16.7744 0 14.0291 0L4.97093 0C2.22556 0 0 2.22556 0 4.97093V14.0291C0 16.7744 2.22556 19 4.97093 19H14.0291C16.7744 19 19 16.7744 19 14.0291Z" fill="white"/>
<path d="M12.1902 18.9999C12.1902 18.2137 12.1902 17.4209 12.1902 16.6347C12.1902 16.1538 12.1382 15.6795 11.8783 15.2571C11.8003 15.1337 11.7029 15.0232 11.6119 14.9062C11.9628 14.8412 12.3202 14.7958 12.6646 14.7048C13.5873 14.4709 14.4125 14.0615 14.9713 13.2557C15.3872 12.6644 15.5756 11.9821 15.6536 11.2739C15.7186 10.7215 15.7381 10.1692 15.6211 9.62339C15.5042 9.07107 15.2637 8.57722 14.8999 8.15486C14.8089 8.05089 14.7894 7.96642 14.8349 7.82996C15.0753 7.09569 14.9778 6.38092 14.7049 5.67914C14.6919 5.64015 14.6204 5.60116 14.575 5.59466C14.2566 5.54918 13.9512 5.64015 13.6717 5.77011C13.2169 5.98454 12.775 6.23146 12.3267 6.45889C12.2487 6.49788 12.1447 6.52387 12.0667 6.50438C10.6502 6.14699 9.24014 6.14699 7.82359 6.50438C7.73912 6.52387 7.62215 6.49788 7.55068 6.45239C6.97886 6.08851 6.36805 5.7961 5.71176 5.62066C5.69876 5.62066 5.69226 5.61416 5.67927 5.61416C5.2634 5.52969 5.19192 5.57517 5.06846 5.97804C4.88002 6.62784 4.84103 7.27113 5.06846 7.92093C5.08795 7.97291 5.06846 8.06388 5.02947 8.10287C4.28221 8.94761 4.10676 9.95479 4.20423 11.0334C4.26271 11.6897 4.41217 12.32 4.70457 12.9114C5.10745 13.7301 5.79623 14.2304 6.62797 14.5228C7.1478 14.7048 7.70663 14.8023 8.25245 14.9387C8.25895 14.9387 8.25245 14.9127 8.25245 14.9387C7.97304 15.2311 7.81059 15.5885 7.74561 15.9849C7.73912 16.0369 7.70013 16.1083 7.66114 16.1213C7.03084 16.3553 6.40054 16.4787 5.78323 16.1018C5.50382 15.9264 5.29589 15.6795 5.12694 15.4001C4.86702 14.9582 4.49664 14.6333 4.0028 14.4904C3.82735 14.4384 3.61942 14.4514 3.43098 14.4644C3.30102 14.4709 3.26203 14.5683 3.3465 14.6788C3.42448 14.7763 3.50895 14.8932 3.61292 14.9517C4.08727 15.2246 4.35369 15.66 4.57462 16.1408C4.70457 16.4267 4.81504 16.7127 5.05546 16.9336C5.43884 17.278 5.9002 17.4144 6.40054 17.4339C6.82291 17.4534 7.24527 17.4339 7.68713 17.4339C7.68713 17.4339 7.69363 17.4729 7.69363 17.5184C7.69363 17.9927 7.66764 18.5256 7.66764 18.9999H12.1967H12.1902Z" fill="black"/>
</svg>
