<svg width="19" height="19" viewBox="0 0 19 19" fill="none" xmlns="http://www.w3.org/2000/svg">
<path d="M18.9019 14.0294V4.98397C18.9019 2.24244 16.6878 0.019989 13.9566 0.019989L4.94518 0.019989C2.21398 0.019989 -9.34601e-05 2.24244 -9.34601e-05 4.98397V14.0294C-9.34601e-05 16.771 2.21398 18.9934 4.94518 18.9934H13.9566C16.6878 18.9934 18.9019 16.771 18.9019 14.0294Z" fill="white"/>
<path d="M5.48157 7.74165H7.311V13.6465H5.48157V7.74165ZM6.39952 4.80869C6.98778 4.80869 7.45968 5.28237 7.45968 5.87286C7.45968 6.46335 6.98778 6.93703 6.39952 6.93703C5.81126 6.93703 5.33936 6.45686 5.33936 5.87286C5.33936 5.28886 5.81126 4.80869 6.39952 4.80869Z" fill="black"/>
<path d="M8.46154 7.74165H10.2134V8.54627H10.2393C10.4849 8.07907 11.0796 7.59241 11.9717 7.59241C13.8205 7.59241 14.1632 8.81231 14.1632 10.4021V13.64H12.3337V10.772C12.3337 10.0841 12.3208 9.20813 11.3835 9.20813C10.4461 9.20813 10.2845 9.95435 10.2845 10.7265V13.6465H8.45508V7.74165H8.46154Z" fill="black"/>
</svg>
