<svg width="27" height="26" viewBox="0 0 27 26" fill="none" xmlns="http://www.w3.org/2000/svg">
<path d="M26.5498 19.1708V6.79282C26.5498 3.04125 23.52 0 19.7826 0L7.4512 0C3.71377 0 0.683979 3.04125 0.683979 6.79282V19.1708C0.683979 22.9224 3.71377 25.9636 7.4512 25.9636H19.7826C23.52 25.9636 26.5498 22.9224 26.5498 19.1708Z" fill="white"/>
<g clip-path="url(#clip0_122_890)">
<path d="M13.813 5.76521C16.2107 5.76521 16.4961 5.76521 17.4476 5.8223C18.323 5.86036 18.7987 6.01259 19.1127 6.13629C19.5313 6.29804 19.8358 6.49785 20.1498 6.81183C20.4638 7.12582 20.6636 7.43029 20.8253 7.84894C20.949 8.16293 21.0918 8.63866 21.1393 9.51402C21.1869 10.4655 21.1964 10.7414 21.1964 13.1487C21.1964 15.5559 21.1964 15.8318 21.1393 16.7833C21.1013 17.6586 20.949 18.1344 20.8253 18.4484C20.6636 18.867 20.4638 19.1715 20.1498 19.4855C19.8358 19.7995 19.5313 19.9993 19.1127 20.161C18.7987 20.2847 18.323 20.4274 17.4476 20.475C16.4961 20.5226 16.2202 20.5321 13.813 20.5321C11.4057 20.5321 11.1298 20.5321 10.1783 20.475C9.30298 20.4369 8.82725 20.2847 8.51326 20.161C8.09461 19.9993 7.79014 19.7995 7.47615 19.4855C7.16217 19.1715 6.96236 18.867 6.80061 18.4484C6.67691 18.1344 6.53419 17.6586 6.48662 16.7833C6.43905 15.8318 6.42953 15.5559 6.42953 13.1487C6.42953 10.7414 6.42953 10.4655 6.48662 9.51402C6.52468 8.63866 6.67691 8.16293 6.80061 7.84894C6.96236 7.43029 7.16217 7.12582 7.47615 6.81183C7.79014 6.49785 8.09461 6.29804 8.51326 6.13629C8.82725 6.01259 9.30298 5.86987 10.1783 5.8223C11.1298 5.77473 11.4057 5.76521 13.813 5.76521ZM13.813 4.14771C11.3772 4.14771 11.0632 4.15722 10.1117 4.20479C9.15075 4.25237 8.50375 4.4046 7.93286 4.62344C7.34295 4.8518 6.83867 5.15627 6.3439 5.66055C5.83962 6.16483 5.53515 6.6596 5.30679 7.24951C5.08795 7.8204 4.93572 8.47691 4.88814 9.42839C4.84057 10.3894 4.83105 10.6938 4.83105 13.1296C4.83105 15.5654 4.84057 15.8794 4.88814 16.8309C4.93572 17.7918 5.08795 18.4388 5.30679 19.0097C5.53515 19.5996 5.83962 20.1039 6.3439 20.5987C6.84818 21.103 7.34295 21.4074 7.93286 21.6358C8.50375 21.8546 9.16026 22.0069 10.1117 22.0545C11.0727 22.102 11.3772 22.1115 13.813 22.1115C16.2487 22.1115 16.5627 22.102 17.5142 22.0545C18.4752 22.0069 19.1222 21.8546 19.6931 21.6358C20.283 21.4074 20.7873 21.103 21.282 20.5987C21.7863 20.0944 22.0908 19.5996 22.3192 19.0097C22.538 18.4388 22.6902 17.7823 22.7378 16.8309C22.7854 15.8699 22.7949 15.5654 22.7949 13.1296C22.7949 10.6938 22.7854 10.3799 22.7378 9.42839C22.6902 8.4674 22.538 7.8204 22.3192 7.24951C22.0908 6.6596 21.7863 6.15532 21.282 5.66055C20.7778 5.15627 20.283 4.8518 19.6931 4.62344C19.1222 4.4046 18.4657 4.25237 17.5142 4.20479C16.5532 4.15722 16.2487 4.14771 13.813 4.14771Z" fill="black"/>
<path d="M13.8129 8.51501C11.2629 8.51501 9.19824 10.5797 9.19824 13.1297C9.19824 15.6796 11.2629 17.7443 13.8129 17.7443C16.3628 17.7443 18.4275 15.6796 18.4275 13.1297C18.4275 10.5797 16.3628 8.51501 13.8129 8.51501ZM13.8129 16.1268C12.1573 16.1268 10.8157 14.7852 10.8157 13.1297C10.8157 11.4741 12.1573 10.1325 13.8129 10.1325C15.4685 10.1325 16.81 11.4741 16.81 13.1297C16.81 14.7852 15.4685 16.1268 13.8129 16.1268Z" fill="black"/>
<path d="M18.6181 9.40937C19.2119 9.40937 19.6933 8.928 19.6933 8.3342C19.6933 7.7404 19.2119 7.25903 18.6181 7.25903C18.0243 7.25903 17.543 7.7404 17.543 8.3342C17.543 8.928 18.0243 9.40937 18.6181 9.40937Z" fill="black"/>
</g>
<defs>
<clipPath id="clip0_122_890">
<rect width="17.9734" height="17.9734" fill="white" transform="translate(4.83105 4.14771)"/>
</clipPath>
</defs>
</svg>
