<svg width="27" height="26" viewBox="0 0 27 26" fill="none" xmlns="http://www.w3.org/2000/svg">
<path d="M26.6553 19.1708V6.79282C26.6553 3.04125 23.6255 0 19.8881 0L7.55667 0C3.81924 0 0.789448 3.04125 0.789448 6.79282V19.1708C0.789448 22.9224 3.81924 25.9636 7.55667 25.9636H19.8881C23.6255 25.9636 26.6553 22.9224 26.6553 19.1708Z" fill="white"/>
<path d="M14.438 15.3169C14.438 15.7165 14.3584 16.0628 14.1991 16.3558C14.0399 16.6577 13.8276 16.9064 13.5534 17.1106C13.2791 17.3148 12.9607 17.4658 12.598 17.5723C12.2353 17.6789 11.8461 17.7322 11.4392 17.7322H6.93652V8.37317H11.9257C12.253 8.37317 12.5449 8.4442 12.8014 8.58628C13.0668 8.72835 13.288 8.90594 13.4737 9.13681C13.6595 9.35879 13.801 9.6163 13.8984 9.90044C13.9957 10.1846 14.0487 10.4776 14.0487 10.7618C14.0487 11.2146 13.9337 11.6497 13.7037 12.0493C13.4737 12.4489 13.1464 12.7419 12.7041 12.9372C13.2349 13.0971 13.6595 13.3812 13.9691 13.7897C14.2787 14.1981 14.438 14.7131 14.438 15.3258V15.3169ZM8.74112 9.92708V12.289H11.1561C11.4657 12.289 11.7222 12.1825 11.9345 11.9694C12.1468 11.7563 12.253 11.4721 12.253 11.0992C12.253 10.7262 12.1557 10.451 11.9611 10.2467C11.7665 10.0336 11.5188 9.92708 11.2357 9.92708H8.74112ZM12.6157 14.9706C12.6157 14.8019 12.5891 14.6421 12.5272 14.4911C12.4741 14.3402 12.3945 14.207 12.2972 14.0916C12.1999 13.9761 12.0849 13.8873 11.9522 13.8252C11.8195 13.763 11.678 13.7275 11.5188 13.7275H8.73227V16.1871H11.4215C11.5895 16.1871 11.7399 16.1605 11.8903 16.0983C12.0318 16.0362 12.1557 15.9474 12.2618 15.8408C12.368 15.7343 12.4476 15.6011 12.5095 15.4501C12.5715 15.2992 12.598 15.1393 12.598 14.9795L12.6157 14.9706Z" fill="black"/>
<path d="M18.3664 17.7236C17.8356 17.7236 17.3491 17.6348 16.9156 17.4483C16.0576 17.0842 15.456 16.4715 15.1022 15.6014C14.9341 15.184 14.8545 14.7489 14.8545 14.2872C14.8545 13.8255 14.9341 13.3637 15.0933 12.9375C15.4383 12.0584 16.0399 11.4369 16.9068 11.0639C17.3402 10.8775 17.8356 10.7798 18.3752 10.7798C18.9148 10.7798 19.4014 10.8775 19.8348 11.0639C21.2413 11.6766 21.9048 13.0529 21.8429 14.5358C21.8429 14.6335 21.8252 14.7223 21.8075 14.7933H16.6591C16.6856 15.0597 16.7475 15.2906 16.8537 15.4948C16.9598 15.699 17.0837 15.8766 17.2518 16.0187C17.411 16.1608 17.5968 16.2762 17.8002 16.3472C18.0037 16.4271 18.216 16.4627 18.4371 16.4627C18.7733 16.4627 19.1006 16.3827 19.4014 16.214C19.7021 16.0453 19.9056 15.8322 20.0206 15.557L21.4802 15.9654C21.2325 16.4804 20.8433 16.8978 20.3037 17.2263C19.764 17.5548 19.1271 17.7147 18.3752 17.7147L18.3664 17.7236ZM20.0913 13.6923C20.0471 13.1861 19.8614 12.7866 19.534 12.4846C19.2067 12.1827 18.8087 12.0318 18.3487 12.0318C18.1187 12.0318 17.9064 12.0762 17.7029 12.1561C17.4995 12.236 17.3314 12.3515 17.1722 12.4935C17.0218 12.6356 16.8979 12.8132 16.8006 13.0174C16.7033 13.2216 16.6502 13.4436 16.6325 13.6923H20.0913Z" fill="black"/>
<path d="M16.1191 8.81726H20.5775V9.9272H16.1191V8.81726Z" fill="black"/>
</svg>
