<svg width="26" height="26" viewBox="0 0 26 26" fill="none" xmlns="http://www.w3.org/2000/svg">
<path d="M26 19.1977V6.80233C26 3.0455 22.9545 0 19.1977 0L6.80233 0C3.04551 0 1.90735e-06 3.0455 1.90735e-06 6.80233V19.1977C1.90735e-06 22.9545 3.04551 26 6.80233 26H19.1977C22.9545 26 26 22.9545 26 19.1977Z" fill="white"/>
<path d="M16.6817 25.9999C16.6817 24.924 16.6817 23.8392 16.6817 22.7633C16.6817 22.1053 16.6106 21.4561 16.2549 20.8782C16.1482 20.7092 16.0148 20.5581 15.8903 20.398C16.3705 20.3091 16.8595 20.2468 17.3308 20.1224C18.5935 19.8022 19.7227 19.2421 20.4874 18.1395C21.0565 17.3303 21.3144 16.3966 21.4211 15.4274C21.51 14.6716 21.5367 13.9158 21.3766 13.1689C21.2166 12.4131 20.8876 11.7373 20.3896 11.1593C20.2651 11.017 20.2385 10.9014 20.3007 10.7147C20.6297 9.70991 20.4963 8.7318 20.1229 7.77147C20.1051 7.71812 20.0073 7.66477 19.945 7.65588C19.5093 7.59363 19.0914 7.71812 18.7091 7.89596C18.0866 8.18939 17.482 8.52728 16.8684 8.8385C16.7617 8.89185 16.6195 8.92742 16.5128 8.90075C14.5743 8.41169 12.6448 8.41169 10.7063 8.90075C10.5907 8.92742 10.4307 8.89185 10.3329 8.82961C9.55037 8.33166 8.71453 7.93153 7.81645 7.69144C7.79866 7.69144 7.78977 7.68255 7.77199 7.68255C7.2029 7.56696 7.10509 7.6292 6.93615 8.1805C6.67828 9.06969 6.62493 9.94999 6.93615 10.8392C6.96282 10.9103 6.93615 11.0348 6.88279 11.0882C5.86022 12.2441 5.62014 13.6224 5.75352 15.0984C5.83355 15.9965 6.03806 16.859 6.4382 17.6682C6.9895 18.7886 7.93204 19.4732 9.07021 19.8734C9.78156 20.1224 10.5463 20.2557 11.2932 20.4425C11.3021 20.4425 11.2932 20.4069 11.2932 20.4425C10.9108 20.8426 10.6885 21.3317 10.5996 21.8741C10.5907 21.9452 10.5374 22.043 10.484 22.0608C9.62151 22.3809 8.75899 22.5499 7.91426 22.0341C7.53191 21.794 7.24736 21.4561 7.01617 21.0738C6.6605 20.4691 6.15366 20.0245 5.47787 19.8289C5.23779 19.7578 4.95325 19.7756 4.69538 19.7934C4.51754 19.8023 4.46419 19.9356 4.57979 20.0868C4.68649 20.2202 4.80208 20.3802 4.94435 20.4603C5.59347 20.8337 5.95803 21.4295 6.26036 22.0875C6.4382 22.4787 6.58936 22.87 6.91836 23.1723C7.44299 23.6436 8.07431 23.8303 8.75899 23.857C9.33697 23.8836 9.91494 23.857 10.5196 23.857C10.5196 23.857 10.5285 23.9103 10.5285 23.9726C10.5285 24.6217 10.4929 25.3508 10.4929 25.9999H16.6906H16.6817Z" fill="black"/>
</svg>
