<svg width="203" height="67" viewBox="0 0 203 67" fill="none" xmlns="http://www.w3.org/2000/svg">
<g clip-path="url(#clip0_128_940)">
<path d="M38.0654 1.92908V64.7248L74.2494 45.7874L38.0654 1.92908Z" fill="url(#paint0_linear_128_940)"/>
<path d="M1.08398 46.3967L37.2304 63.6723L38.0662 1.17761L1.08398 46.3967Z" fill="url(#paint1_linear_128_940)"/>
<path d="M23.864 29.3697L24.2275 32.6128L27.316 35.1587H28.7009L30.7548 33.3269L31.6956 32.6128L32.5614 33.0671V34.3774L30.678 36.9308L26.6638 37.7196L22.6608 35.5419L20.9648 31.0445L21.8306 28.6687L23.864 29.3697Z" fill="white"/>
<path d="M37.3588 66.1331C36.8566 65.9611 36.3206 65.834 35.8352 65.6022C31.851 63.6956 27.8331 61.8562 23.9107 59.83C17.2785 56.4055 10.7044 52.8651 4.11337 49.3621C3.45183 49.0107 2.85214 48.5434 2.19435 48.1845C1.8158 47.9789 1.38852 47.8275 0.964983 47.749C0.301573 47.6256 -0.163188 47.0443 0.0523264 46.3414C0.228486 45.7676 0.502095 45.19 0.860037 44.7077C2.04255 43.1226 3.26443 41.5636 4.50504 40.0234C14.7017 27.3498 24.9058 14.6819 35.1062 2.01397C35.4342 1.60647 35.7621 1.19898 36.1107 0.808303C36.9353 -0.118847 37.8592 -0.253433 38.9067 0.44006C39.3397 0.726056 39.7557 1.06439 40.1024 1.44946C41.9408 3.49816 43.8336 5.50387 45.5615 7.64229C55.061 19.3868 64.5192 31.165 73.9906 42.9319C74.5472 43.6235 75.1169 44.3058 75.636 45.0217C76.3538 46.0124 76.2957 46.7882 75.3905 47.6144C74.9089 48.0537 74.3486 48.4313 73.7695 48.7322C68.659 51.3903 63.5447 54.039 58.4155 56.6597C53.4886 59.1757 48.5487 61.6637 43.6012 64.1386C42.5855 64.647 41.5379 65.1199 40.4603 65.4676C39.4746 65.7854 38.427 65.9106 37.3569 66.1312L37.3588 66.1331ZM2.82215 46.8667C14.3887 51.4034 25.5093 56.9326 36.6148 62.3254V5.0945C36.5398 5.06833 36.4649 5.04216 36.3899 5.01599C25.2075 18.9587 14.0233 32.9034 2.82215 46.8667ZM60.7093 43.5039C59.1426 40.6664 57.619 37.9092 56.101 35.1577C55.9811 35.1764 55.908 35.1708 55.8518 35.1969C52.4916 36.812 49.1352 38.4326 45.7714 40.0364C45.4284 40.1991 45.3928 40.3935 45.449 40.7337C45.7657 42.6833 46.0562 44.6367 46.3598 46.5882C46.536 47.7228 46.7159 48.8593 46.9051 50.0668C51.5415 47.8611 56.0935 45.6965 60.7112 43.502L60.7093 43.5039ZM38.9855 62.7273C44.5514 59.815 50.1397 56.8915 55.7319 53.9661C55.001 51.981 54.2832 50.0295 53.5655 48.0854C53.4324 48.1116 53.3593 48.1116 53.3012 48.1396C48.738 50.2874 44.1728 52.4333 39.6226 54.6054C39.4315 54.697 39.2703 55.0503 39.2609 55.2877C39.2066 56.6709 39.2235 58.0579 39.1766 59.443C39.1391 60.572 39.0473 61.6973 38.9855 62.7292V62.7273ZM56.86 53.4371C61.9968 50.8183 67.0717 48.2312 72.2103 45.6124C71.1102 44.2273 70.0139 42.8964 68.9813 41.5188C68.5878 40.9916 68.271 40.8926 67.662 41.1916C63.5635 43.203 59.4443 45.1731 55.3346 47.1583C55.1996 47.2237 55.0797 47.3209 54.941 47.4088C55.5763 49.407 56.2022 51.3697 56.86 53.4352V53.4371ZM39.2816 41.9506C42.8085 40.2925 46.2717 38.6625 49.7631 37.0195C48.6836 33.8361 47.6248 30.7107 46.5528 27.5461C46.2642 27.6751 46.0581 27.7648 45.8538 27.8601C43.8542 28.791 41.864 29.7425 39.8494 30.6397C39.3696 30.8528 39.2385 31.1126 39.2422 31.6098C39.2628 34.8137 39.2497 38.0195 39.2516 41.2234C39.2516 41.4421 39.2703 41.6608 39.2816 41.9506ZM61.1347 31.7482C58.944 28.9948 56.8001 26.2993 54.6393 23.5833C52.4804 24.6375 50.3815 25.6731 48.2713 26.6862C47.8665 26.8806 47.9921 27.1218 48.0933 27.4096C48.7548 29.3181 49.4089 31.2304 50.0685 33.1389C50.4358 34.2044 50.8125 35.2661 51.2004 36.3783C54.5306 34.825 57.7952 33.3053 61.1328 31.7482H61.1347ZM44.0678 40.8757C42.6061 41.5468 41.2324 42.1992 39.8381 42.8048C39.3977 42.9955 39.2366 43.2273 39.2403 43.7133C39.2647 46.8723 39.2534 50.0313 39.2553 53.1922C39.2553 53.3661 39.2722 53.5381 39.2797 53.7082C39.3678 53.7138 39.4184 53.7343 39.4521 53.7175C41.4123 52.7586 43.3745 51.8015 45.3216 50.8183C45.464 50.7454 45.6083 50.4613 45.5821 50.3024C45.0967 47.1863 44.5851 44.074 44.066 40.8757H44.0678ZM57.1318 34.6007C58.7003 37.4438 60.2221 40.2028 61.7719 43.0123C63.8146 42.0384 65.7936 41.0963 67.84 40.1206C65.7411 37.4999 63.7003 34.9539 61.6594 32.4061C60.1227 33.1501 58.6554 33.8604 57.1299 34.5988L57.1318 34.6007ZM43.3595 27.7031C45.7189 26.6245 47.979 25.5909 50.2803 24.5385C48.8185 21.8879 47.4074 19.3289 45.985 16.7456C44.6807 17.3456 43.4382 17.9045 42.2126 18.497C42.072 18.5662 41.9221 18.841 41.9464 18.9943C42.3962 21.8636 42.8722 24.7291 43.3613 27.7012L43.3595 27.7031ZM39.3209 29.6322C40.0724 29.2714 40.7452 28.892 41.4592 28.6247C42.0551 28.4022 42.1563 28.0639 42.0608 27.4863C41.7647 25.6974 41.5173 23.9011 41.2474 22.1066C41.1012 21.1346 40.9438 20.1644 40.7808 19.127C40.3348 19.3083 39.9656 19.4242 39.6339 19.6074C39.4896 19.6859 39.3322 19.9008 39.3322 20.056C39.3153 23.2094 39.319 26.3629 39.319 29.6322H39.3209ZM46.9876 16.282C48.4419 18.9139 49.8624 21.486 51.3016 24.0898C52.2368 23.6674 53.1176 23.2692 54.0583 22.8431C52.1337 20.3962 50.2597 18.0148 48.3838 15.6296C47.8871 15.8614 47.4617 16.0595 46.9876 16.2801V16.282ZM40.6421 10.205C39.7726 10.5029 39.3384 11.0674 39.3397 11.8986C39.3397 13.8949 39.334 15.8913 39.3303 17.8858C39.3303 18.1232 39.3303 18.3606 39.3303 18.7027C40.6046 18.1008 41.759 17.5549 42.9434 16.996C42.1657 14.7025 41.4123 12.4762 40.6421 10.2032V10.205ZM41.9408 9.47042C42.7467 11.8014 43.53 14.0632 44.3302 16.3792C45.4959 15.852 46.5997 15.353 47.756 14.8296C46.178 12.7865 44.6582 10.82 43.129 8.84048C42.7148 9.05918 42.3569 9.24798 41.9408 9.46855V9.47042ZM39.2497 9.81997C40.4884 9.20499 41.5267 8.69094 42.6005 8.1582C41.4348 6.55625 40.3235 5.02907 39.2497 3.55423V9.82184V9.81997Z" fill="black"/>
<path d="M19.8469 29.8202C19.6126 29.7847 19.4646 29.7903 19.3465 29.7361C19.0842 29.6183 18.6213 29.465 18.625 29.3342C18.6325 29.0276 18.7843 28.6201 19.0204 28.4426C19.7888 27.8594 20.7146 27.6332 21.6685 27.5902C22.5174 27.5509 23.372 27.5098 24.2172 27.5734C25.0117 27.6332 25.7951 27.8238 26.5822 27.964C26.7846 27.9996 26.9795 28.0781 27.1819 28.1192C28.9716 28.4818 30.6001 29.2164 32.0338 30.338C32.8939 31.0109 33.7897 31.6857 34.485 32.5138C35.169 33.3307 36.1735 34.0653 35.9917 35.3532C35.9505 35.6429 35.8268 36.028 35.6132 36.1588C35.3358 36.3289 34.9835 36.3271 34.6743 35.9401C34.3351 35.5158 33.8216 35.2336 33.458 34.9476C32.9127 35.5607 30.587 40.4151 24.1141 37.6468C20.2161 36.1065 19.577 31.3567 19.8506 29.8202H19.8469ZM31.9644 33.469C32.0563 33.1942 31.7077 32.9587 31.5034 33.1643C31.4978 33.1699 31.4922 33.1755 31.4903 33.1811C30.6938 34.8167 29.1796 35.3999 27.7066 35.3999C26.8371 35.3999 25.9731 35.1625 25.2385 34.6971C23.0777 33.3307 23.5013 31.1642 23.5837 30.0071C23.61 29.6464 23.3082 29.3473 22.9466 29.3735H22.9391C22.7723 29.3865 22.5174 29.5043 22.4724 29.6202C20.1749 35.5457 29.7681 40.0955 31.9644 33.4709V33.469Z" fill="black"/>
<path d="M22.7081 25.2367C29.3871 23.8124 34.4058 28.8687 34.6101 29.1024C34.7188 29.2257 34.7675 29.4613 34.7338 29.6201C34.7169 29.6949 34.3908 29.7958 34.2802 29.7379C33.778 29.4762 29.6233 26.1415 22.6631 25.4199C22.6781 25.3582 22.6949 25.2966 22.7099 25.2349L22.7081 25.2367Z" fill="black"/>
<path d="M25.4457 32.2596C26.1184 32.2596 26.6638 31.7156 26.6638 31.0446C26.6638 30.3736 26.1184 29.8296 25.4457 29.8296C24.7729 29.8296 24.2275 30.3736 24.2275 31.0446C24.2275 31.7156 24.7729 32.2596 25.4457 32.2596Z" fill="white"/>
<path d="M28.3229 34.8841C28.8259 34.8841 29.2337 34.4773 29.2337 33.9756C29.2337 33.4739 28.8259 33.0671 28.3229 33.0671C27.8199 33.0671 27.4121 33.4739 27.4121 33.9756C27.4121 34.4773 27.8199 34.8841 28.3229 34.8841Z" fill="white"/>
<path d="M29.6292 40.8805C29.6292 40.8805 29.453 40.9235 29.1344 41.002C28.9751 41.0413 28.7784 41.0862 28.5479 41.1217C28.3174 41.1591 28.055 41.2114 27.7608 41.2357C27.6127 41.2507 27.459 41.2656 27.2979 41.2824C27.1367 41.2899 26.968 41.2955 26.7938 41.303C26.6195 41.3123 26.4377 41.3086 26.2503 41.303C26.0629 41.2993 25.8699 41.2955 25.6731 41.2731C24.8841 41.2114 24.0127 41.0432 23.1469 40.7067C22.2773 40.3758 21.5183 39.8861 20.9112 39.3608C20.6094 39.0954 20.3452 38.8169 20.1184 38.5458C19.8954 38.2692 19.7024 38.0019 19.5487 37.7439C19.2376 37.2299 19.0577 36.7831 18.9565 36.4691C18.8535 36.1551 18.8291 35.9738 18.8291 35.9738C18.8291 35.9738 18.9097 36.1364 19.0877 36.4056C19.2639 36.6747 19.5394 37.0504 19.9217 37.4654C20.1128 37.6729 20.334 37.886 20.5776 38.1047C20.8268 38.3197 21.0986 38.5365 21.3984 38.744C22.0018 39.1552 22.7009 39.5422 23.488 39.8412C25.0547 40.4525 26.6157 40.6674 27.757 40.7703C28.0437 40.802 28.3024 40.8095 28.5329 40.8263C28.7634 40.845 28.9601 40.8506 29.1232 40.8544C29.4493 40.8693 29.6311 40.8768 29.6311 40.8768L29.6292 40.8805Z" fill="black"/>
<path d="M70.8351 23.848L72.3306 24.2218L70.8351 24.5957C70.5334 24.6704 70.2617 24.8125 70.0312 25.0032C69.6376 25.3321 69.3977 25.8107 69.3378 26.3191L68.9929 29.2819L68.6481 26.3191C68.5881 25.8088 68.3483 25.3321 67.9547 25.0032C67.7242 24.8125 67.4525 24.6704 67.1508 24.5957L65.6553 24.2218L67.1508 23.848C67.5724 23.7433 67.9397 23.5078 68.2077 23.1862C68.4551 22.8909 68.5994 22.5245 68.6462 22.1432L68.9929 19.2814L69.3396 22.1432C69.3865 22.5245 69.5308 22.8909 69.7782 23.1862C70.048 23.5078 70.4153 23.7433 70.8351 23.848Z" fill="white"/>
<path d="M18.6693 7.84713L19.8893 8.15182L18.6693 8.45651C18.4238 8.51819 18.2008 8.63222 18.0134 8.78924C17.6929 9.05654 17.4962 9.44721 17.4474 9.86219L17.1663 12.2773L16.8852 9.86219C16.8365 9.44721 16.6416 9.05841 16.3193 8.78924C16.1319 8.63222 15.9089 8.51819 15.6634 8.45651L14.4434 8.15182L15.6634 7.84713C16.0063 7.76115 16.3062 7.56861 16.5254 7.30879C16.7259 7.06952 16.8459 6.77044 16.8834 6.46015L17.1645 4.12732L17.4456 6.46015C17.483 6.77044 17.6011 7.06952 17.8035 7.30879C18.0228 7.57048 18.3226 7.76115 18.6656 7.84713H18.6693Z" fill="white"/>
</g>
<path d="M85.616 24.8H89.832C93.488 24.8 95.808 26.984 95.808 30.4C95.808 33.816 93.488 36 89.832 36H85.616V24.8ZM89.832 26.016H86.904V34.784H89.832C92.864 34.784 94.456 33.024 94.456 30.4C94.456 27.76 92.864 26.016 89.832 26.016ZM104.973 28.424V32.84C104.973 35.088 103.357 36.152 101.533 36.152C99.7013 36.152 98.0933 35.088 98.0933 32.84V28.424H99.2853V32.728C99.2853 34.296 100.237 35.032 101.533 35.032C102.829 35.032 103.773 34.296 103.773 32.728V28.424H104.973ZM108.881 24.48V36H107.681V24.48H108.881ZM115.025 28.272C116.145 28.272 117.153 28.688 117.833 29.464L117.065 30.272C116.497 29.72 115.817 29.392 114.993 29.392C113.473 29.392 112.321 30.576 112.321 32.208C112.321 33.848 113.473 35.032 114.993 35.032C115.817 35.032 116.553 34.664 117.089 34.144L117.833 34.96C117.145 35.736 116.145 36.152 115.025 36.152C112.697 36.152 111.105 34.456 111.105 32.208C111.105 29.968 112.697 28.272 115.025 28.272ZM122.912 28.272C124.968 28.272 126.456 29.88 126.472 32.184C126.472 32.336 126.464 32.496 126.448 32.632H120.376C120.544 34.264 121.688 35.104 123.056 35.104C123.992 35.104 124.808 34.744 125.456 34.152L126.096 34.968C125.152 35.872 124.096 36.152 122.984 36.152C120.744 36.152 119.152 34.56 119.152 32.216C119.152 29.896 120.752 28.272 122.912 28.272ZM122.888 29.336C121.488 29.336 120.584 30.296 120.392 31.664H125.256C125.104 30.248 124.176 29.336 122.888 29.336ZM136.721 33.912V36H128.569V24.8H130.801V33.912H136.721ZM141.816 28.04C144.232 28.04 146.016 29.784 146.016 32.12C146.016 34.456 144.232 36.2 141.816 36.2C139.408 36.2 137.632 34.456 137.632 32.12C137.632 29.784 139.408 28.04 141.816 28.04ZM141.816 29.984C140.64 29.984 139.76 30.864 139.76 32.12C139.76 33.376 140.64 34.256 141.816 34.256C142.992 34.256 143.88 33.376 143.88 32.12C143.88 30.864 142.992 29.984 141.816 29.984ZM152.073 28.04C154.217 28.04 155.833 29.792 155.833 32.12C155.833 34.448 154.217 36.2 152.081 36.2C151.041 36.2 150.305 35.792 149.801 35.192V39.2H147.721V28.248H149.761V29.104C150.265 28.472 151.009 28.04 152.073 28.04ZM151.689 29.984C150.505 29.984 149.697 30.896 149.697 32.12C149.697 33.344 150.505 34.256 151.689 34.256C152.921 34.256 153.689 33.304 153.689 32.12C153.689 30.936 152.921 29.984 151.689 29.984ZM160.974 28.04C163.206 28.04 164.734 29.696 164.742 32.112C164.742 32.352 164.726 32.64 164.701 32.816H159.206C159.43 33.936 160.214 34.424 161.198 34.424C161.87 34.424 162.598 34.152 163.158 33.68L164.382 35.024C163.502 35.832 162.382 36.2 161.078 36.2C158.702 36.2 157.054 34.584 157.054 32.144C157.054 29.704 158.654 28.04 160.974 28.04ZM160.957 29.84C159.974 29.84 159.398 30.432 159.214 31.392H162.646C162.454 30.4 161.854 29.84 160.957 29.84ZM170.648 28.04C171.096 28.04 171.448 28.104 171.736 28.208L171.424 30.28C171.08 30.128 170.584 30.032 170.16 30.032C169.192 30.032 168.528 30.624 168.528 31.776V36H166.44V28.248H168.464V29.096C168.952 28.368 169.696 28.04 170.648 28.04ZM176.333 28.04C178.565 28.04 180.093 29.696 180.101 32.112C180.101 32.352 180.085 32.64 180.061 32.816H174.565C174.789 33.936 175.573 34.424 176.557 34.424C177.229 34.424 177.957 34.152 178.517 33.68L179.741 35.024C178.861 35.832 177.741 36.2 176.437 36.2C174.061 36.2 172.413 34.584 172.413 32.144C172.413 29.704 174.013 28.04 176.333 28.04ZM176.317 29.84C175.333 29.84 174.757 30.432 174.573 31.392H178.005C177.813 30.4 177.213 29.84 176.317 29.84ZM186.111 28.04C187.871 28.04 189.127 29.264 189.127 31.064V36H187.039V31.736C187.039 30.616 186.479 30 185.527 30C184.631 30 183.887 30.584 183.887 31.752V36H181.799V28.248H183.831V29.16C184.383 28.336 185.231 28.04 186.111 28.04ZM198.884 28.248V36H196.844V35.144C196.34 35.768 195.588 36.2 194.524 36.2C192.388 36.2 190.772 34.448 190.772 32.12C190.772 29.792 192.388 28.04 194.524 28.04C195.588 28.04 196.332 28.472 196.844 29.104V28.248H198.884ZM194.908 29.984C193.684 29.984 192.908 30.936 192.908 32.12C192.908 33.304 193.684 34.256 194.908 34.256C196.1 34.256 196.908 33.344 196.908 32.12C196.908 30.896 196.1 29.984 194.908 29.984Z" fill="white"/>
<defs>
<linearGradient id="paint0_linear_128_940" x1="39.1955" y1="33.7587" x2="72.9097" y2="46.7367" gradientUnits="userSpaceOnUse">
<stop stop-color="#3B48CB"/>
<stop offset="0.31" stop-color="#EFB52D"/>
<stop offset="0.67" stop-color="#35A8E0"/>
<stop offset="0.92" stop-color="#F14B3B"/>
</linearGradient>
<linearGradient id="paint1_linear_128_940" x1="10.5385" y1="51.2026" x2="43.0176" y2="28.5909" gradientUnits="userSpaceOnUse">
<stop stop-color="#EABDBA"/>
<stop offset="0.31" stop-color="#EFB52D"/>
<stop offset="0.67" stop-color="#35A8E0"/>
<stop offset="0.92" stop-color="#F14B3B"/>
</linearGradient>
<clipPath id="clip0_128_940">
<rect width="76.129" height="66.1323" fill="white"/>
</clipPath>
</defs>
</svg>
